Normalized EMG Linear Envelopes
nRows=107
nColumns=4

endheader
time	 med_gas_r	  soleus_r	 tib_ant_r	
3.57863	  0.010073	  0.013385	  0.003428	
3.6502	  0.010307	  0.013896	  0.005105	
3.72177	  0.010827	  0.014656	  0.005765	
3.79335	  0.011523	  0.015507	  0.005373	
3.86492	  0.012103	  0.015942	  0.004682	
3.93649	  0.012347	  0.015736	  0.004268	
4.00806	  0.012118	  0.015182	  0.004138	
4.07964	  0.011457	  0.014734	  0.004095	
4.15121	  0.010602	  0.014628	  0.004027	
4.22278	  0.009876	  0.014682	  0.003918	
4.29435	  0.009614	  0.014595	  0.003833	
4.36593	  0.009888	  0.014326	  0.003913	
4.4375	  0.010470	  0.014052	  0.004310	
4.50907	  0.011224	  0.014023	  0.005116	
4.58065	  0.012050	  0.014331	  0.006160	
4.65222	  0.012651	  0.014805	  0.006898	
4.72379	  0.012837	  0.015201	  0.006916	
4.79536	  0.012674	  0.015268	  0.006398	
4.86694	  0.012242	  0.014801	  0.005745	
4.93851	  0.011583	  0.013981	  0.005158	
5.01008	  0.010968	  0.013475	  0.004748	
5.08165	  0.010993	  0.013921	  0.004669	
5.15323	  0.012032	  0.015630	  0.005037	
5.2248	  0.013682	  0.018590	  0.005800	
5.29637	  0.014793	  0.021498	  0.006606	
5.36794	  0.014212	  0.021298	  0.006881	
5.43952	  0.012048	  0.016544	  0.006381	
5.51109	  0.010338	  0.012339	  0.005942	
5.58266	  0.012417	  0.020227	  0.007371	
5.65423	  0.021160	  0.051227	  0.012015	
5.72581	  0.036271	  0.105377	  0.019145	
5.79738	  0.053181	  0.165976	  0.026039	
5.86895	  0.066313	  0.209066	  0.030302	
5.94052	  0.073832	  0.223499	  0.031879	
6.0121	  0.078448	  0.219759	  0.032238	
6.08367	  0.083885	  0.216992	  0.032585	
6.15524	  0.091424	  0.225135	  0.033603	
6.22681	  0.099366	  0.241717	  0.035856	
6.29839	  0.104683	  0.257347	  0.039401	
6.36996	  0.105797	  0.262022	  0.043236	
6.44153	  0.104888	  0.255786	  0.045708	
6.5131	  0.104896	  0.248347	  0.045568	
6.58468	  0.104226	  0.244780	  0.042688	
6.65625	  0.101229	  0.245502	  0.038645	
6.72782	  0.100955	  0.253655	  0.036276	
6.7994	  0.107995	  0.269020	  0.037079	
6.87097	  0.118605	  0.285618	  0.039677	
6.94254	  0.126743	  0.297864	  0.041775	
7.01411	  0.130610	  0.301402	  0.042303	
7.08569	  0.129421	  0.293625	  0.041355	
7.15726	  0.121292	  0.276051	  0.039435	
7.22883	  0.108426	  0.253062	  0.037594	
7.3004	  0.097159	  0.229638	  0.037432	
7.37198	  0.090651	  0.211166	  0.039454	
7.44355	  0.088457	  0.203969	  0.042117	
7.51512	  0.091276	  0.212697	  0.043897	
7.58669	  0.099294	  0.236328	  0.044917	
7.65827	  0.108880	  0.266737	  0.045501	
7.72984	  0.116086	  0.291241	  0.045180	
7.80141	  0.120631	  0.301196	  0.043997	
7.87298	  0.123533	  0.298491	  0.043025	
7.94456	  0.124085	  0.290968	  0.043221	
8.01613	  0.121449	  0.284116	  0.044416	
8.0877	  0.116985	  0.277924	  0.045332	
8.15927	  0.113194	  0.270530	  0.044809	
8.23085	  0.110569	  0.263052	  0.042909	
8.30242	  0.106585	  0.256797	  0.040400	
8.37399	  0.099116	  0.249999	  0.037988	
8.44556	  0.089904	  0.243063	  0.036400	
8.51714	  0.083433	  0.240696	  0.035853	
8.58871	  0.083464	  0.244677	  0.035457	
8.66028	  0.090300	  0.250250	  0.034381	
8.73185	  0.101090	  0.253003	  0.033442	
8.80343	  0.113463	  0.254709	  0.034507	
8.875	  0.126084	  0.259053	  0.037980	
8.94657	  0.135251	  0.265119	  0.041877	
9.01815	  0.137536	  0.268337	  0.043957	
9.08972	  0.136340	  0.268141	  0.043855	
9.16129	  0.137945	  0.270504	  0.042979	
9.23286	  0.142285	  0.279333	  0.043185	
9.30444	  0.144769	  0.290669	  0.045257	
9.37601	  0.143009	  0.298304	  0.047835	
9.44758	  0.137347	  0.300705	  0.048680	
9.51915	  0.129706	  0.299755	  0.047801	
9.59073	  0.122906	  0.295484	  0.047406	
9.6623	  0.118788	  0.287668	  0.048228	
9.73387	  0.117323	  0.280737	  0.048632	
9.80544	  0.117961	  0.279016	  0.047346	
9.87702	  0.121754	  0.278149	  0.044532	
9.94859	  0.128756	  0.270046	  0.040856	
10.0202	  0.133703	  0.254890	  0.037261	
10.0917	  0.130904	  0.240522	  0.034906	
10.1633	  0.121450	  0.232432	  0.034368	
10.2349	  0.111039	  0.229910	  0.035010	
10.3065	  0.104581	  0.230402	  0.035448	
10.378	  0.102321	  0.231576	  0.034922	
10.4496	  0.098636	  0.228499	  0.033790	
10.5212	  0.088988	  0.216494	  0.032394	
10.5927	  0.076787	  0.197782	  0.030388	
10.6643	  0.068005	  0.178240	  0.027624	
10.7359	  0.062630	  0.159543	  0.024803	
10.8075	  0.056375	  0.141141	  0.022824	
10.879	  0.047991	  0.125555	  0.022091	
10.9506	  0.040472	  0.115938	  0.022501	
11.0222	  0.036165	  0.112320	  0.023671	
11.0937	  0.034192	  0.112966	  0.025171	
11.1653	  0.032723	  0.115864	  0.026722	
